<svg width="44" height="42" viewBox="0 0 44 42" fill="none" xmlns="http://www.w3.org/2000/svg">
<circle cx="20" cy="22" r="20" fill="#353334"/>
<circle cx="20" cy="22" r="20" fill="#353334"/>
<path d="M11.5625 27.4375V20.1875C11.5625 19.0829 12.4579 18.1875 13.5625 18.1875H26.4375C27.5421 18.1875 28.4375 19.0829 28.4375 20.1875V27.4375C28.4375 28.5421 27.5421 29.4375 26.4375 29.4375H13.5625C12.4579 29.4375 11.5625 28.5421 11.5625 27.4375Z" stroke="white" stroke-width="1.5"/>
<path d="M15.625 20.5833L15.625 16.9375C15.625 16.363 15.7382 15.7941 15.958 15.2633C16.1779 14.7325 16.5002 14.2502 16.9064 13.8439C17.3127 13.4377 17.795 13.1154 18.3258 12.8955C18.8566 12.6757 19.4255 12.5625 20 12.5625C20.5745 12.5625 21.1434 12.6757 21.6742 12.8955C22.205 13.1154 22.6873 13.4377 23.0936 13.8439C23.4998 14.2502 23.8221 14.7325 24.042 15.2633C24.2618 15.7941 24.375 16.363 24.375 16.9375V20.5833" stroke="white" stroke-width="1.5" stroke-linecap="round"/>
<circle cx="36.5" cy="7.5" r="7.5" fill="url(#paint0_linear_213_25)"/>
<path d="M37.3097 3.72727V11H36.429V4.65057H36.3864L34.6108 5.82955V4.93466L36.429 3.72727H37.3097Z" fill="white"/>
<defs>
<linearGradient id="paint0_linear_213_25" x1="29" y1="7" x2="44" y2="7" gradientUnits="userSpaceOnUse">
<stop stop-color="#FCAD72"/>
<stop offset="1" stop-color="#FF626D"/>
</linearGradient>
</defs>
</svg>
