<svg width="35" height="35" viewBox="0 0 35 35" fill="none" xmlns="http://www.w3.org/2000/svg">
<circle cx="17.5" cy="17.5" r="17.5" fill="#353334"/>
<circle cx="17.5" cy="17.5" r="17.5" fill="#353334"/>
<path d="M8.5625 24.4375V17.1875C8.5625 16.0829 9.45793 15.1875 10.5625 15.1875H23.4375C24.5421 15.1875 25.4375 16.0829 25.4375 17.1875V24.4375C25.4375 25.5421 24.5421 26.4375 23.4375 26.4375H10.5625C9.45793 26.4375 8.5625 25.5421 8.5625 24.4375Z" stroke="white" stroke-width="1.5"/>
<path d="M12.625 17.5833L12.625 13.9375C12.625 13.363 12.7382 12.7941 12.958 12.2633C13.1779 11.7325 13.5002 11.2502 13.9064 10.8439C14.3127 10.4377 14.795 10.1154 15.3258 9.89553C15.8566 9.67566 16.4255 9.5625 17 9.5625C17.5745 9.5625 18.1434 9.67566 18.6742 9.89553C19.205 10.1154 19.6873 10.4377 20.0936 10.8439C20.4998 11.2502 20.8221 11.7325 21.042 12.2633C21.2618 12.7941 21.375 13.363 21.375 13.9375V17.5833" stroke="white" stroke-width="1.5" stroke-linecap="round"/>
</svg>
