<svg width="40" height="40" viewBox="0 0 40 40" fill="none" xmlns="http://www.w3.org/2000/svg">
<circle cx="20" cy="20" r="20" fill="#353334"/>
<circle cx="20" cy="20" r="20" fill="#353334"/>
<path d="M17.189 16.157C17.1768 16.5261 17.2374 16.8941 17.3674 17.2398C17.4974 17.5855 17.6942 17.9022 17.9466 18.1719C18.199 18.4416 18.502 18.6589 18.8384 18.8114C19.1747 18.964 19.5379 19.0487 19.907 19.061C20.2761 19.0732 20.6441 19.0126 20.9898 18.8826C21.3355 18.7526 21.6522 18.5558 21.9219 18.3034C22.1916 18.051 22.4089 17.748 22.5614 17.4116C22.714 17.0753 22.7987 16.7121 22.811 16.343C22.8232 15.9739 22.7626 15.6059 22.6326 15.2602C22.5026 14.9145 22.3058 14.5978 22.0534 14.3281C21.801 14.0584 21.498 13.8411 21.1616 13.6886C20.8253 13.5361 20.4621 13.4512 20.093 13.439C19.7239 13.4268 19.3559 13.4874 19.0102 13.6174C18.6645 13.7474 18.3478 13.9442 18.0781 14.1966C17.8084 14.449 17.5911 14.752 17.4386 15.0884C17.2861 15.4247 17.2012 15.7879 17.189 16.157Z" stroke="white" stroke-width="1.5" stroke-linecap="round" stroke-linejoin="round"/>
<path d="M25.625 26.5625C25.1642 25.4525 24.3838 24.5038 23.3826 23.8363C22.3813 23.1688 21.2042 22.8125 20 22.8125C18.7958 22.8125 17.6187 23.1688 16.6174 23.8363C15.6162 24.5038 14.8358 25.4525 14.375 26.5625" stroke="white" stroke-width="1.5" stroke-linecap="round" stroke-linejoin="round"/>
</svg>
