<svg width="35" height="35" viewBox="0 0 35 35" fill="none" xmlns="http://www.w3.org/2000/svg">
<circle cx="17.5" cy="17.5" r="17.5" fill="#353334"/>
<circle cx="17.5" cy="17.5" r="17.5" fill="#353334"/>
<g clip-path="url(#clip0_661_2481)">
<path d="M20.8645 20.3208H20.0515L19.7633 20.0429C20.7719 18.8696 21.3791 17.3465 21.3791 15.6895C21.3791 11.9949 18.3842 9 14.6895 9C10.9949 9 8 11.9949 8 15.6895C8 19.3842 10.9949 22.3791 14.6895 22.3791C16.3465 22.3791 17.8696 21.7719 19.0429 20.7633L19.3208 21.0515V21.8645L24.4666 27L26 25.4666L20.8645 20.3208ZM14.6895 20.3208C12.1269 20.3208 10.0583 18.2521 10.0583 15.6895C10.0583 13.1269 12.1269 11.0583 14.6895 11.0583C17.2521 11.0583 19.3208 13.1269 19.3208 15.6895C19.3208 18.2521 17.2521 20.3208 14.6895 20.3208Z" fill="white"/>
</g>
<defs>
<clipPath id="clip0_661_2481">
<rect width="30" height="30" fill="white" transform="translate(2 3)"/>
</clipPath>
</defs>
</svg>
